<?xml version="1.0" standalone="no"?>
<svg xmlns:xlink="http://www.w3.org/1999/xlink" xmlns="http://www.w3.org/2000/svg" class="vtree" width="960" height="800"><style>
.vtree-node text { font: 14px sans-serif; }
.vtree-link { fill: none; stroke: #888; stroke-width: 2px; }
.vtree-table { stroke-width: 2px; stroke: steelblue; }
path.vtree-table { fill: white; }
g.vtree-node rect { fill: white; stroke: black; stroke-width: 1px; }
g.vtree-node rect.number-text { fill: #d8f0ed; }
g.vtree-node rect.string-text { fill: #e7f0db; }
g.vtree-node rect.boolean-text { fill: #e1d8f0; }
g.vtree-node rect.null-text { fill: #888; }
</style><g class="vtree-root"><g class="vtree-node" transform="translate(480,20)"><g class="vtree-node" transform="translate(-88,0)"><path class="vtree-link" d="M88,13C88,68.5 88,68.5 88,124"/><g class="vtree-node" transform="translate(88,76)"><g class="vtree-node" transform="translate(-71,0)"><path class="vtree-link" d="M71,48C71,103.5 1801,103.5 1801,159"/><path class="vtree-link" d="M71,48C71,103.5 14,103.5 14,159"/><g class="vtree-node" transform="translate(14,124)"><g class="vtree-node" transform="translate(-76,0)"><path class="vtree-link" d="M76,35C76,90.5 -977,90.5 -977,146"/><g class="vtree-node" transform="translate(76,98)"><path class="vtree-link" d="M602,35C602,35 1655,35 1655,35"/><path class="vtree-link" d="M-1053,35C-1053,35 602,35 602,35"/><g class="vtree-node" transform="translate(-1106,0)"><path class="vtree-link" d="M53,48C53,103.5 657,103.5 657,159"/><path class="vtree-link" d="M53,48C53,103.5 -21,103.5 -21,159"/><g class="vtree-node" transform="translate(-21,124)"><g class="vtree-node" transform="translate(-60,0)"><path class="vtree-link" d="M60,35C60,84 60,84 60,133"/><g class="vtree-node" transform="translate(60,98)"><g class="vtree-node" transform="translate(-60,0)"><path class="vtree-link" d="M60,35C60,90.5 -468,90.5 -468,146"/><g class="vtree-node" transform="translate(60,98)"><path class="vtree-link" d="M378,35C378,35 529,35 529,35"/><path class="vtree-link" d="M227,35C227,35 378,35 378,35"/><path class="vtree-link" d="M76,35C76,35 227,35 227,35"/><path class="vtree-link" d="M-75,35C-75,35 76,35 76,35"/><path class="vtree-link" d="M-226,35C-226,35 -75,35 -75,35"/><path class="vtree-link" d="M-377,35C-377,35 -226,35 -226,35"/><path class="vtree-link" d="M-528,35C-528,35 -377,35 -377,35"/><g class="vtree-node" transform="translate(-599,0)"><path class="vtree-link" d="M71,48C71,103.5 71,103.5 71,159"/><g class="vtree-node" transform="translate(23,124)"><g transform="translate(0,22)"><g transform="translate(0,0)"><rect class="string-text" x="0" y="0" width="69" height="26"/><text x="4" y="22">qualType</text></g><g transform="translate(69,0)"><rect class="string-text" x="0" y="0" width="26" height="26"/><text x="4" y="22">int</text></g></g><g><text x="48" y="18" text-anchor="middle">type</text></g></g><g transform="translate(0,22)"><g transform="translate(0,0)"><rect class="string-text" x="0" y="0" width="44" height="26"/><text x="4" y="22">kind</text></g><g transform="translate(44,0)"><rect class="string-text" x="0" y="0" width="97" height="26"/><text x="4" y="22">IntegerLiteral</text></g><g transform="translate(0,26)"><rect class="string-text" x="0" y="0" width="44" height="26"/><text x="4" y="22">value</text></g><g transform="translate(44,26)"><rect class="string-text" x="0" y="0" width="97" height="26"/><text x="4" y="22">1</text></g></g><g><text x="71" y="18" text-anchor="middle">inner[0]</text></g></g><g class="vtree-node" transform="translate(-437,0)"><path class="vtree-link" d="M60,35C60,90.5 60,90.5 60,146"/><g class="vtree-node" transform="translate(60,98)"><g class="vtree-node" transform="translate(-71,0)"><path class="vtree-link" d="M71,48C71,103.5 71,103.5 71,159"/><g class="vtree-node" transform="translate(23,124)"><g transform="translate(0,22)"><g transform="translate(0,0)"><rect class="string-text" x="0" y="0" width="69" height="26"/><text x="4" y="22">qualType</text></g><g transform="translate(69,0)"><rect class="string-text" x="0" y="0" width="26" height="26"/><text x="4" y="22">int</text></g></g><g><text x="48" y="18" text-anchor="middle">type</text></g></g><g transform="translate(0,22)"><g transform="translate(0,0)"><rect class="string-text" x="0" y="0" width="44" height="26"/><text x="4" y="22">kind</text></g><g transform="translate(44,0)"><rect class="string-text" x="0" y="0" width="97" height="26"/><text x="4" y="22">IntegerLiteral</text></g><g transform="translate(0,26)"><rect class="string-text" x="0" y="0" width="44" height="26"/><text x="4" y="22">value</text></g><g transform="translate(44,26)"><rect class="string-text" x="0" y="0" width="97" height="26"/><text x="4" y="22">2</text></g></g><g><text x="71" y="18" text-anchor="middle">inner[0]</text></g></g></g><g transform="translate(0,22)"><g transform="translate(0,0)"><rect class="string-text" x="0" y="0" width="37" height="26"/><text x="4" y="22">kind</text></g><g transform="translate(37,0)"><rect class="string-text" x="0" y="0" width="83" height="26"/><text x="4" y="22">InitListExpr</text></g></g><g><text x="60" y="18" text-anchor="middle">inner[1]</text></g></g><g class="vtree-node" transform="translate(-286,0)"><path class="vtree-link" d="M60,35C60,90.5 60,90.5 60,146"/><g class="vtree-node" transform="translate(60,98)"><g class="vtree-node" transform="translate(-71,0)"><path class="vtree-link" d="M71,48C71,103.5 71,103.5 71,159"/><g class="vtree-node" transform="translate(23,124)"><g transform="translate(0,22)"><g transform="translate(0,0)"><rect class="string-text" x="0" y="0" width="69" height="26"/><text x="4" y="22">qualType</text></g><g transform="translate(69,0)"><rect class="string-text" x="0" y="0" width="26" height="26"/><text x="4" y="22">int</text></g></g><g><text x="48" y="18" text-anchor="middle">type</text></g></g><g transform="translate(0,22)"><g transform="translate(0,0)"><rect class="string-text" x="0" y="0" width="44" height="26"/><text x="4" y="22">kind</text></g><g transform="translate(44,0)"><rect class="string-text" x="0" y="0" width="97" height="26"/><text x="4" y="22">IntegerLiteral</text></g><g transform="translate(0,26)"><rect class="string-text" x="0" y="0" width="44" height="26"/><text x="4" y="22">value</text></g><g transform="translate(44,26)"><rect class="string-text" x="0" y="0" width="97" height="26"/><text x="4" y="22">3</text></g></g><g><text x="71" y="18" text-anchor="middle">inner[0]</text></g></g></g><g transform="translate(0,22)"><g transform="translate(0,0)"><rect class="string-text" x="0" y="0" width="37" height="26"/><text x="4" y="22">kind</text></g><g transform="translate(37,0)"><rect class="string-text" x="0" y="0" width="83" height="26"/><text x="4" y="22">InitListExpr</text></g></g><g><text x="60" y="18" text-anchor="middle">inner[2]</text></g></g><g class="vtree-node" transform="translate(-135,0)"><path class="vtree-link" d="M60,35C60,90.5 60,90.5 60,146"/><g class="vtree-node" transform="translate(60,98)"><g class="vtree-node" transform="translate(-71,0)"><path class="vtree-link" d="M71,48C71,103.5 71,103.5 71,159"/><g class="vtree-node" transform="translate(23,124)"><g transform="translate(0,22)"><g transform="translate(0,0)"><rect class="string-text" x="0" y="0" width="69" height="26"/><text x="4" y="22">qualType</text></g><g transform="translate(69,0)"><rect class="string-text" x="0" y="0" width="26" height="26"/><text x="4" y="22">int</text></g></g><g><text x="48" y="18" text-anchor="middle">type</text></g></g><g transform="translate(0,22)"><g transform="translate(0,0)"><rect class="string-text" x="0" y="0" width="44" height="26"/><text x="4" y="22">kind</text></g><g transform="translate(44,0)"><rect class="string-text" x="0" y="0" width="97" height="26"/><text x="4" y="22">IntegerLiteral</text></g><g transform="translate(0,26)"><rect class="string-text" x="0" y="0" width="44" height="26"/><text x="4" y="22">value</text></g><g transform="translate(44,26)"><rect class="string-text" x="0" y="0" width="97" height="26"/><text x="4" y="22">4</text></g></g><g><text x="71" y="18" text-anchor="middle">inner[0]</text></g></g></g><g transform="translate(0,22)"><g transform="translate(0,0)"><rect class="string-text" x="0" y="0" width="37" height="26"/><text x="4" y="22">kind</text></g><g transform="translate(37,0)"><rect class="string-text" x="0" y="0" width="83" height="26"/><text x="4" y="22">InitListExpr</text></g></g><g><text x="60" y="18" text-anchor="middle">inner[3]</text></g></g><g class="vtree-node" transform="translate(16,0)"><path class="vtree-link" d="M60,35C60,90.5 60,90.5 60,146"/><g class="vtree-node" transform="translate(60,98)"><g class="vtree-node" transform="translate(-71,0)"><path class="vtree-link" d="M71,48C71,103.5 71,103.5 71,159"/><g class="vtree-node" transform="translate(23,124)"><g transform="translate(0,22)"><g transform="translate(0,0)"><rect class="string-text" x="0" y="0" width="69" height="26"/><text x="4" y="22">qualType</text></g><g transform="translate(69,0)"><rect class="string-text" x="0" y="0" width="26" height="26"/><text x="4" y="22">int</text></g></g><g><text x="48" y="18" text-anchor="middle">type</text></g></g><g transform="translate(0,22)"><g transform="translate(0,0)"><rect class="string-text" x="0" y="0" width="44" height="26"/><text x="4" y="22">kind</text></g><g transform="translate(44,0)"><rect class="string-text" x="0" y="0" width="97" height="26"/><text x="4" y="22">IntegerLiteral</text></g><g transform="translate(0,26)"><rect class="string-text" x="0" y="0" width="44" height="26"/><text x="4" y="22">value</text></g><g transform="translate(44,26)"><rect class="string-text" x="0" y="0" width="97" height="26"/><text x="4" y="22">5</text></g></g><g><text x="71" y="18" text-anchor="middle">inner[0]</text></g></g></g><g transform="translate(0,22)"><g transform="translate(0,0)"><rect class="string-text" x="0" y="0" width="37" height="26"/><text x="4" y="22">kind</text></g><g transform="translate(37,0)"><rect class="string-text" x="0" y="0" width="83" height="26"/><text x="4" y="22">InitListExpr</text></g></g><g><text x="60" y="18" text-anchor="middle">inner[4]</text></g></g><g class="vtree-node" transform="translate(167,0)"><path class="vtree-link" d="M60,35C60,90.5 60,90.5 60,146"/><g class="vtree-node" transform="translate(60,98)"><g class="vtree-node" transform="translate(-71,0)"><path class="vtree-link" d="M71,48C71,103.5 71,103.5 71,159"/><g class="vtree-node" transform="translate(23,124)"><g transform="translate(0,22)"><g transform="translate(0,0)"><rect class="string-text" x="0" y="0" width="69" height="26"/><text x="4" y="22">qualType</text></g><g transform="translate(69,0)"><rect class="string-text" x="0" y="0" width="26" height="26"/><text x="4" y="22">int</text></g></g><g><text x="48" y="18" text-anchor="middle">type</text></g></g><g transform="translate(0,22)"><g transform="translate(0,0)"><rect class="string-text" x="0" y="0" width="44" height="26"/><text x="4" y="22">kind</text></g><g transform="translate(44,0)"><rect class="string-text" x="0" y="0" width="97" height="26"/><text x="4" y="22">IntegerLiteral</text></g><g transform="translate(0,26)"><rect class="string-text" x="0" y="0" width="44" height="26"/><text x="4" y="22">value</text></g><g transform="translate(44,26)"><rect class="string-text" x="0" y="0" width="97" height="26"/><text x="4" y="22">6</text></g></g><g><text x="71" y="18" text-anchor="middle">inner[0]</text></g></g></g><g transform="translate(0,22)"><g transform="translate(0,0)"><rect class="string-text" x="0" y="0" width="37" height="26"/><text x="4" y="22">kind</text></g><g transform="translate(37,0)"><rect class="string-text" x="0" y="0" width="83" height="26"/><text x="4" y="22">InitListExpr</text></g></g><g><text x="60" y="18" text-anchor="middle">inner[5]</text></g></g><g class="vtree-node" transform="translate(318,0)"><path class="vtree-link" d="M60,35C60,90.5 60,90.5 60,146"/><g class="vtree-node" transform="translate(60,98)"><g class="vtree-node" transform="translate(-71,0)"><path class="vtree-link" d="M71,48C71,103.5 71,103.5 71,159"/><g class="vtree-node" transform="translate(23,124)"><g transform="translate(0,22)"><g transform="translate(0,0)"><rect class="string-text" x="0" y="0" width="69" height="26"/><text x="4" y="22">qualType</text></g><g transform="translate(69,0)"><rect class="string-text" x="0" y="0" width="26" height="26"/><text x="4" y="22">int</text></g></g><g><text x="48" y="18" text-anchor="middle">type</text></g></g><g transform="translate(0,22)"><g transform="translate(0,0)"><rect class="string-text" x="0" y="0" width="44" height="26"/><text x="4" y="22">kind</text></g><g transform="translate(44,0)"><rect class="string-text" x="0" y="0" width="97" height="26"/><text x="4" y="22">IntegerLiteral</text></g><g transform="translate(0,26)"><rect class="string-text" x="0" y="0" width="44" height="26"/><text x="4" y="22">value</text></g><g transform="translate(44,26)"><rect class="string-text" x="0" y="0" width="97" height="26"/><text x="4" y="22">7</text></g></g><g><text x="71" y="18" text-anchor="middle">inner[0]</text></g></g></g><g transform="translate(0,22)"><g transform="translate(0,0)"><rect class="string-text" x="0" y="0" width="37" height="26"/><text x="4" y="22">kind</text></g><g transform="translate(37,0)"><rect class="string-text" x="0" y="0" width="83" height="26"/><text x="4" y="22">InitListExpr</text></g></g><g><text x="60" y="18" text-anchor="middle">inner[6]</text></g></g><g class="vtree-node" transform="translate(469,0)"><path class="vtree-link" d="M60,35C60,90.5 60,90.5 60,146"/><g class="vtree-node" transform="translate(60,98)"><g class="vtree-node" transform="translate(-71,0)"><path class="vtree-link" d="M71,48C71,103.5 71,103.5 71,159"/><g class="vtree-node" transform="translate(23,124)"><g transform="translate(0,22)"><g transform="translate(0,0)"><rect class="string-text" x="0" y="0" width="69" height="26"/><text x="4" y="22">qualType</text></g><g transform="translate(69,0)"><rect class="string-text" x="0" y="0" width="26" height="26"/><text x="4" y="22">int</text></g></g><g><text x="48" y="18" text-anchor="middle">type</text></g></g><g transform="translate(0,22)"><g transform="translate(0,0)"><rect class="string-text" x="0" y="0" width="44" height="26"/><text x="4" y="22">kind</text></g><g transform="translate(44,0)"><rect class="string-text" x="0" y="0" width="97" height="26"/><text x="4" y="22">IntegerLiteral</text></g><g transform="translate(0,26)"><rect class="string-text" x="0" y="0" width="44" height="26"/><text x="4" y="22">value</text></g><g transform="translate(44,26)"><rect class="string-text" x="0" y="0" width="97" height="26"/><text x="4" y="22">8</text></g></g><g><text x="71" y="18" text-anchor="middle">inner[0]</text></g></g></g><g transform="translate(0,22)"><g transform="translate(0,0)"><rect class="string-text" x="0" y="0" width="37" height="26"/><text x="4" y="22">kind</text></g><g transform="translate(37,0)"><rect class="string-text" x="0" y="0" width="83" height="26"/><text x="4" y="22">InitListExpr</text></g></g><g><text x="60" y="18" text-anchor="middle">inner[7]</text></g></g></g><g transform="translate(0,22)"><g transform="translate(0,0)"><rect class="string-text" x="0" y="0" width="37" height="26"/><text x="4" y="22">kind</text></g><g transform="translate(37,0)"><rect class="string-text" x="0" y="0" width="83" height="26"/><text x="4" y="22">InitListExpr</text></g></g><g><text x="60" y="18" text-anchor="middle">inner[0]</text></g></g></g><g transform="translate(0,22)"><g transform="translate(0,0)"><rect class="string-text" x="0" y="0" width="37" height="26"/><text x="4" y="22">kind</text></g><g transform="translate(37,0)"><rect class="string-text" x="0" y="0" width="83" height="26"/><text x="4" y="22">InitListExpr</text></g></g><g><text x="60" y="18" text-anchor="middle">inner[0]</text></g></g></g><g class="vtree-node" transform="translate(588,124)"><g transform="translate(0,22)"><g transform="translate(0,0)"><rect class="string-text" x="0" y="0" width="69" height="26"/><text x="4" y="22">qualType</text></g><g transform="translate(69,0)"><rect class="string-text" x="0" y="0" width="69" height="26"/><text x="4" y="22">int [4] [2]</text></g></g><g><text x="69" y="18" text-anchor="middle">type</text></g></g><g transform="translate(0,22)"><g transform="translate(0,0)"><rect class="string-text" x="0" y="0" width="46" height="26"/><text x="4" y="22">kind</text></g><g transform="translate(46,0)"><rect class="string-text" x="0" y="0" width="60" height="26"/><text x="4" y="22">VarDecl</text></g><g transform="translate(0,26)"><rect class="string-text" x="0" y="0" width="46" height="26"/><text x="4" y="22">name</text></g><g transform="translate(46,26)"><rect class="string-text" x="0" y="0" width="60" height="26"/><text x="4" y="22">a</text></g></g><g><text x="53" y="18" text-anchor="middle">inner[0]</text></g></g><g class="vtree-node" transform="translate(549,0)"><path class="vtree-link" d="M53,48C53,103.5 956,103.5 956,159"/><path class="vtree-link" d="M53,48C53,103.5 -21,103.5 -21,159"/><g class="vtree-node" transform="translate(-21,124)"><g class="vtree-node" transform="translate(-60,0)"><path class="vtree-link" d="M60,35C60,84 60,84 60,133"/><g class="vtree-node" transform="translate(60,98)"><g class="vtree-node" transform="translate(-60,0)"><path class="vtree-link" d="M60,35C60,84 -393,84 -393,133"/><g class="vtree-node" transform="translate(60,98)"><path class="vtree-link" d="M450,35C450,35 752,35 752,35"/><path class="vtree-link" d="M148,35C148,35 450,35 450,35"/><path class="vtree-link" d="M-453,35C-453,35 148,35 148,35"/><g class="vtree-node" transform="translate(-513,0)"><path class="vtree-link" d="M60,35C60,84 -165,84 -165,133"/><g class="vtree-node" transform="translate(60,98)"><path class="vtree-link" d="M-225,35C-225,35 225,35 225,35"/><g class="vtree-node" transform="translate(-312,0)"><path class="vtree-link" d="M87,35C87,84 12,84 12,133"/><g class="vtree-node" transform="translate(87,98)"><path class="vtree-link" d="M-75,35C-75,35 150,35 150,35"/><g class="vtree-node" transform="translate(-162,0)"><path class="vtree-link" d="M87,35C87,90.5 11,90.5 11,146"/><g class="vtree-node" transform="translate(87,98)"><path class="vtree-link" d="M-76,48C-76,48 74,48 74,48"/><g class="vtree-node" transform="translate(-144,0)"><path class="vtree-link" d="M68,48C68,103.5 68,103.5 68,159"/><g class="vtree-node" transform="translate(-1,124)"><g transform="translate(0,22)"><g transform="translate(0,0)"><rect class="string-text" x="0" y="0" width="69" height="26"/><text x="4" y="22">qualType</text></g><g transform="translate(69,0)"><rect class="string-text" x="0" y="0" width="69" height="26"/><text x="4" y="22">int [4] [2]</text></g></g><g><text x="69" y="18" text-anchor="middle">type</text></g></g><g transform="translate(0,22)"><g transform="translate(0,0)"><rect class="string-text" x="0" y="0" width="46" height="26"/><text x="4" y="22">kind</text></g><g transform="translate(46,0)"><rect class="string-text" x="0" y="0" width="89" height="26"/><text x="4" y="22">DeclRefExpr</text></g><g transform="translate(0,26)"><rect class="string-text" x="0" y="0" width="46" height="26"/><text x="4" y="22">name</text></g><g transform="translate(46,26)"><rect class="string-text" x="0" y="0" width="89" height="26"/><text x="4" y="22">a</text></g></g><g><text x="68" y="18" text-anchor="middle">inner[0]</text></g></g><g class="vtree-node" transform="translate(3,0)"><path class="vtree-link" d="M71,48C71,103.5 71,103.5 71,159"/><g class="vtree-node" transform="translate(23,124)"><g transform="translate(0,22)"><g transform="translate(0,0)"><rect class="string-text" x="0" y="0" width="69" height="26"/><text x="4" y="22">qualType</text></g><g transform="translate(69,0)"><rect class="string-text" x="0" y="0" width="26" height="26"/><text x="4" y="22">int</text></g></g><g><text x="48" y="18" text-anchor="middle">type</text></g></g><g transform="translate(0,22)"><g transform="translate(0,0)"><rect class="string-text" x="0" y="0" width="44" height="26"/><text x="4" y="22">kind</text></g><g transform="translate(44,0)"><rect class="string-text" x="0" y="0" width="97" height="26"/><text x="4" y="22">IntegerLiteral</text></g><g transform="translate(0,26)"><rect class="string-text" x="0" y="0" width="44" height="26"/><text x="4" y="22">value</text></g><g transform="translate(44,26)"><rect class="string-text" x="0" y="0" width="97" height="26"/><text x="4" y="22">0</text></g></g><g><text x="71" y="18" text-anchor="middle">inner[1]</text></g></g></g><g transform="translate(0,22)"><g transform="translate(0,0)"><rect class="string-text" x="0" y="0" width="37" height="26"/><text x="4" y="22">kind</text></g><g transform="translate(37,0)"><rect class="string-text" x="0" y="0" width="137" height="26"/><text x="4" y="22">ArraySubscriptExpr</text></g></g><g><text x="87" y="18" text-anchor="middle">inner[0]</text></g></g><g class="vtree-node" transform="translate(79,0)"><path class="vtree-link" d="M71,48C71,103.5 71,103.5 71,159"/><g class="vtree-node" transform="translate(23,124)"><g transform="translate(0,22)"><g transform="translate(0,0)"><rect class="string-text" x="0" y="0" width="69" height="26"/><text x="4" y="22">qualType</text></g><g transform="translate(69,0)"><rect class="string-text" x="0" y="0" width="26" height="26"/><text x="4" y="22">int</text></g></g><g><text x="48" y="18" text-anchor="middle">type</text></g></g><g transform="translate(0,22)"><g transform="translate(0,0)"><rect class="string-text" x="0" y="0" width="44" height="26"/><text x="4" y="22">kind</text></g><g transform="translate(44,0)"><rect class="string-text" x="0" y="0" width="97" height="26"/><text x="4" y="22">IntegerLiteral</text></g><g transform="translate(0,26)"><rect class="string-text" x="0" y="0" width="44" height="26"/><text x="4" y="22">value</text></g><g transform="translate(44,26)"><rect class="string-text" x="0" y="0" width="97" height="26"/><text x="4" y="22">0</text></g></g><g><text x="71" y="18" text-anchor="middle">inner[1]</text></g></g></g><g transform="translate(0,22)"><g transform="translate(0,0)"><rect class="string-text" x="0" y="0" width="37" height="26"/><text x="4" y="22">kind</text></g><g transform="translate(37,0)"><rect class="string-text" x="0" y="0" width="137" height="26"/><text x="4" y="22">ArraySubscriptExpr</text></g></g><g><text x="87" y="18" text-anchor="middle">inner[0]</text></g></g><g class="vtree-node" transform="translate(165,0)"><path class="vtree-link" d="M60,35C60,84 60,84 60,133"/><g class="vtree-node" transform="translate(60,98)"><g class="vtree-node" transform="translate(-87,0)"><path class="vtree-link" d="M87,35C87,84 12,84 12,133"/><g class="vtree-node" transform="translate(87,98)"><path class="vtree-link" d="M-75,35C-75,35 150,35 150,35"/><g class="vtree-node" transform="translate(-162,0)"><path class="vtree-link" d="M87,35C87,90.5 11,90.5 11,146"/><g class="vtree-node" transform="translate(87,98)"><path class="vtree-link" d="M-76,48C-76,48 74,48 74,48"/><g class="vtree-node" transform="translate(-144,0)"><path class="vtree-link" d="M68,48C68,103.5 68,103.5 68,159"/><g class="vtree-node" transform="translate(-1,124)"><g transform="translate(0,22)"><g transform="translate(0,0)"><rect class="string-text" x="0" y="0" width="69" height="26"/><text x="4" y="22">qualType</text></g><g transform="translate(69,0)"><rect class="string-text" x="0" y="0" width="69" height="26"/><text x="4" y="22">int [4] [2]</text></g></g><g><text x="69" y="18" text-anchor="middle">type</text></g></g><g transform="translate(0,22)"><g transform="translate(0,0)"><rect class="string-text" x="0" y="0" width="46" height="26"/><text x="4" y="22">kind</text></g><g transform="translate(46,0)"><rect class="string-text" x="0" y="0" width="89" height="26"/><text x="4" y="22">DeclRefExpr</text></g><g transform="translate(0,26)"><rect class="string-text" x="0" y="0" width="46" height="26"/><text x="4" y="22">name</text></g><g transform="translate(46,26)"><rect class="string-text" x="0" y="0" width="89" height="26"/><text x="4" y="22">a</text></g></g><g><text x="68" y="18" text-anchor="middle">inner[0]</text></g></g><g class="vtree-node" transform="translate(3,0)"><path class="vtree-link" d="M71,48C71,103.5 71,103.5 71,159"/><g class="vtree-node" transform="translate(23,124)"><g transform="translate(0,22)"><g transform="translate(0,0)"><rect class="string-text" x="0" y="0" width="69" height="26"/><text x="4" y="22">qualType</text></g><g transform="translate(69,0)"><rect class="string-text" x="0" y="0" width="26" height="26"/><text x="4" y="22">int</text></g></g><g><text x="48" y="18" text-anchor="middle">type</text></g></g><g transform="translate(0,22)"><g transform="translate(0,0)"><rect class="string-text" x="0" y="0" width="44" height="26"/><text x="4" y="22">kind</text></g><g transform="translate(44,0)"><rect class="string-text" x="0" y="0" width="97" height="26"/><text x="4" y="22">IntegerLiteral</text></g><g transform="translate(0,26)"><rect class="string-text" x="0" y="0" width="44" height="26"/><text x="4" y="22">value</text></g><g transform="translate(44,26)"><rect class="string-text" x="0" y="0" width="97" height="26"/><text x="4" y="22">0</text></g></g><g><text x="71" y="18" text-anchor="middle">inner[1]</text></g></g></g><g transform="translate(0,22)"><g transform="translate(0,0)"><rect class="string-text" x="0" y="0" width="37" height="26"/><text x="4" y="22">kind</text></g><g transform="translate(37,0)"><rect class="string-text" x="0" y="0" width="137" height="26"/><text x="4" y="22">ArraySubscriptExpr</text></g></g><g><text x="87" y="18" text-anchor="middle">inner[0]</text></g></g><g class="vtree-node" transform="translate(79,0)"><path class="vtree-link" d="M71,48C71,103.5 71,103.5 71,159"/><g class="vtree-node" transform="translate(23,124)"><g transform="translate(0,22)"><g transform="translate(0,0)"><rect class="string-text" x="0" y="0" width="69" height="26"/><text x="4" y="22">qualType</text></g><g transform="translate(69,0)"><rect class="string-text" x="0" y="0" width="26" height="26"/><text x="4" y="22">int</text></g></g><g><text x="48" y="18" text-anchor="middle">type</text></g></g><g transform="translate(0,22)"><g transform="translate(0,0)"><rect class="string-text" x="0" y="0" width="44" height="26"/><text x="4" y="22">kind</text></g><g transform="translate(44,0)"><rect class="string-text" x="0" y="0" width="97" height="26"/><text x="4" y="22">IntegerLiteral</text></g><g transform="translate(0,26)"><rect class="string-text" x="0" y="0" width="44" height="26"/><text x="4" y="22">value</text></g><g transform="translate(44,26)"><rect class="string-text" x="0" y="0" width="97" height="26"/><text x="4" y="22">1</text></g></g><g><text x="71" y="18" text-anchor="middle">inner[1]</text></g></g></g><g transform="translate(0,22)"><g transform="translate(0,0)"><rect class="string-text" x="0" y="0" width="37" height="26"/><text x="4" y="22">kind</text></g><g transform="translate(37,0)"><rect class="string-text" x="0" y="0" width="137" height="26"/><text x="4" y="22">ArraySubscriptExpr</text></g></g><g><text x="87" y="18" text-anchor="middle">inner[0]</text></g></g></g><g transform="translate(0,22)"><g transform="translate(0,0)"><rect class="string-text" x="0" y="0" width="37" height="26"/><text x="4" y="22">kind</text></g><g transform="translate(37,0)"><rect class="string-text" x="0" y="0" width="83" height="26"/><text x="4" y="22">InitListExpr</text></g></g><g><text x="60" y="18" text-anchor="middle">inner[1]</text></g></g></g><g transform="translate(0,22)"><g transform="translate(0,0)"><rect class="string-text" x="0" y="0" width="37" height="26"/><text x="4" y="22">kind</text></g><g transform="translate(37,0)"><rect class="string-text" x="0" y="0" width="83" height="26"/><text x="4" y="22">InitListExpr</text></g></g><g><text x="60" y="18" text-anchor="middle">inner[0]</text></g></g><g class="vtree-node" transform="translate(88,0)"><path class="vtree-link" d="M60,35C60,84 60,84 60,133"/><g class="vtree-node" transform="translate(60,98)"><g class="vtree-node" transform="translate(-60,0)"><path class="vtree-link" d="M60,35C60,90.5 -15,90.5 -15,146"/><g class="vtree-node" transform="translate(60,98)"><path class="vtree-link" d="M-75,35C-75,35 76,35 76,35"/><g class="vtree-node" transform="translate(-146,0)"><path class="vtree-link" d="M71,48C71,103.5 71,103.5 71,159"/><g class="vtree-node" transform="translate(23,124)"><g transform="translate(0,22)"><g transform="translate(0,0)"><rect class="string-text" x="0" y="0" width="69" height="26"/><text x="4" y="22">qualType</text></g><g transform="translate(69,0)"><rect class="string-text" x="0" y="0" width="26" height="26"/><text x="4" y="22">int</text></g></g><g><text x="48" y="18" text-anchor="middle">type</text></g></g><g transform="translate(0,22)"><g transform="translate(0,0)"><rect class="string-text" x="0" y="0" width="44" height="26"/><text x="4" y="22">kind</text></g><g transform="translate(44,0)"><rect class="string-text" x="0" y="0" width="97" height="26"/><text x="4" y="22">IntegerLiteral</text></g><g transform="translate(0,26)"><rect class="string-text" x="0" y="0" width="44" height="26"/><text x="4" y="22">value</text></g><g transform="translate(44,26)"><rect class="string-text" x="0" y="0" width="97" height="26"/><text x="4" y="22">3</text></g></g><g><text x="71" y="18" text-anchor="middle">inner[0]</text></g></g><g class="vtree-node" transform="translate(16,0)"><path class="vtree-link" d="M60,35C60,90.5 60,90.5 60,146"/><g class="vtree-node" transform="translate(60,98)"><g class="vtree-node" transform="translate(-71,0)"><path class="vtree-link" d="M71,48C71,103.5 71,103.5 71,159"/><g class="vtree-node" transform="translate(23,124)"><g transform="translate(0,22)"><g transform="translate(0,0)"><rect class="string-text" x="0" y="0" width="69" height="26"/><text x="4" y="22">qualType</text></g><g transform="translate(69,0)"><rect class="string-text" x="0" y="0" width="26" height="26"/><text x="4" y="22">int</text></g></g><g><text x="48" y="18" text-anchor="middle">type</text></g></g><g transform="translate(0,22)"><g transform="translate(0,0)"><rect class="string-text" x="0" y="0" width="44" height="26"/><text x="4" y="22">kind</text></g><g transform="translate(44,0)"><rect class="string-text" x="0" y="0" width="97" height="26"/><text x="4" y="22">IntegerLiteral</text></g><g transform="translate(0,26)"><rect class="string-text" x="0" y="0" width="44" height="26"/><text x="4" y="22">value</text></g><g transform="translate(44,26)"><rect class="string-text" x="0" y="0" width="97" height="26"/><text x="4" y="22">4</text></g></g><g><text x="71" y="18" text-anchor="middle">inner[0]</text></g></g></g><g transform="translate(0,22)"><g transform="translate(0,0)"><rect class="string-text" x="0" y="0" width="37" height="26"/><text x="4" y="22">kind</text></g><g transform="translate(37,0)"><rect class="string-text" x="0" y="0" width="83" height="26"/><text x="4" y="22">InitListExpr</text></g></g><g><text x="60" y="18" text-anchor="middle">inner[1]</text></g></g></g><g transform="translate(0,22)"><g transform="translate(0,0)"><rect class="string-text" x="0" y="0" width="37" height="26"/><text x="4" y="22">kind</text></g><g transform="translate(37,0)"><rect class="string-text" x="0" y="0" width="83" height="26"/><text x="4" y="22">InitListExpr</text></g></g><g><text x="60" y="18" text-anchor="middle">inner[0]</text></g></g></g><g transform="translate(0,22)"><g transform="translate(0,0)"><rect class="string-text" x="0" y="0" width="37" height="26"/><text x="4" y="22">kind</text></g><g transform="translate(37,0)"><rect class="string-text" x="0" y="0" width="83" height="26"/><text x="4" y="22">InitListExpr</text></g></g><g><text x="60" y="18" text-anchor="middle">inner[1]</text></g></g><g class="vtree-node" transform="translate(390,0)"><path class="vtree-link" d="M60,35C60,84 60,84 60,133"/><g class="vtree-node" transform="translate(60,98)"><g class="vtree-node" transform="translate(-60,0)"><path class="vtree-link" d="M60,35C60,90.5 -15,90.5 -15,146"/><g class="vtree-node" transform="translate(60,98)"><path class="vtree-link" d="M-75,35C-75,35 76,35 76,35"/><g class="vtree-node" transform="translate(-146,0)"><path class="vtree-link" d="M71,48C71,103.5 71,103.5 71,159"/><g class="vtree-node" transform="translate(23,124)"><g transform="translate(0,22)"><g transform="translate(0,0)"><rect class="string-text" x="0" y="0" width="69" height="26"/><text x="4" y="22">qualType</text></g><g transform="translate(69,0)"><rect class="string-text" x="0" y="0" width="26" height="26"/><text x="4" y="22">int</text></g></g><g><text x="48" y="18" text-anchor="middle">type</text></g></g><g transform="translate(0,22)"><g transform="translate(0,0)"><rect class="string-text" x="0" y="0" width="44" height="26"/><text x="4" y="22">kind</text></g><g transform="translate(44,0)"><rect class="string-text" x="0" y="0" width="97" height="26"/><text x="4" y="22">IntegerLiteral</text></g><g transform="translate(0,26)"><rect class="string-text" x="0" y="0" width="44" height="26"/><text x="4" y="22">value</text></g><g transform="translate(44,26)"><rect class="string-text" x="0" y="0" width="97" height="26"/><text x="4" y="22">5</text></g></g><g><text x="71" y="18" text-anchor="middle">inner[0]</text></g></g><g class="vtree-node" transform="translate(16,0)"><path class="vtree-link" d="M60,35C60,90.5 60,90.5 60,146"/><g class="vtree-node" transform="translate(60,98)"><g class="vtree-node" transform="translate(-71,0)"><path class="vtree-link" d="M71,48C71,103.5 71,103.5 71,159"/><g class="vtree-node" transform="translate(23,124)"><g transform="translate(0,22)"><g transform="translate(0,0)"><rect class="string-text" x="0" y="0" width="69" height="26"/><text x="4" y="22">qualType</text></g><g transform="translate(69,0)"><rect class="string-text" x="0" y="0" width="26" height="26"/><text x="4" y="22">int</text></g></g><g><text x="48" y="18" text-anchor="middle">type</text></g></g><g transform="translate(0,22)"><g transform="translate(0,0)"><rect class="string-text" x="0" y="0" width="44" height="26"/><text x="4" y="22">kind</text></g><g transform="translate(44,0)"><rect class="string-text" x="0" y="0" width="97" height="26"/><text x="4" y="22">IntegerLiteral</text></g><g transform="translate(0,26)"><rect class="string-text" x="0" y="0" width="44" height="26"/><text x="4" y="22">value</text></g><g transform="translate(44,26)"><rect class="string-text" x="0" y="0" width="97" height="26"/><text x="4" y="22">6</text></g></g><g><text x="71" y="18" text-anchor="middle">inner[0]</text></g></g></g><g transform="translate(0,22)"><g transform="translate(0,0)"><rect class="string-text" x="0" y="0" width="37" height="26"/><text x="4" y="22">kind</text></g><g transform="translate(37,0)"><rect class="string-text" x="0" y="0" width="83" height="26"/><text x="4" y="22">InitListExpr</text></g></g><g><text x="60" y="18" text-anchor="middle">inner[1]</text></g></g></g><g transform="translate(0,22)"><g transform="translate(0,0)"><rect class="string-text" x="0" y="0" width="37" height="26"/><text x="4" y="22">kind</text></g><g transform="translate(37,0)"><rect class="string-text" x="0" y="0" width="83" height="26"/><text x="4" y="22">InitListExpr</text></g></g><g><text x="60" y="18" text-anchor="middle">inner[0]</text></g></g></g><g transform="translate(0,22)"><g transform="translate(0,0)"><rect class="string-text" x="0" y="0" width="37" height="26"/><text x="4" y="22">kind</text></g><g transform="translate(37,0)"><rect class="string-text" x="0" y="0" width="83" height="26"/><text x="4" y="22">InitListExpr</text></g></g><g><text x="60" y="18" text-anchor="middle">inner[2]</text></g></g><g class="vtree-node" transform="translate(692,0)"><path class="vtree-link" d="M60,35C60,84 60,84 60,133"/><g class="vtree-node" transform="translate(60,98)"><g class="vtree-node" transform="translate(-60,0)"><path class="vtree-link" d="M60,35C60,90.5 -15,90.5 -15,146"/><g class="vtree-node" transform="translate(60,98)"><path class="vtree-link" d="M-75,35C-75,35 76,35 76,35"/><g class="vtree-node" transform="translate(-146,0)"><path class="vtree-link" d="M71,48C71,103.5 71,103.5 71,159"/><g class="vtree-node" transform="translate(23,124)"><g transform="translate(0,22)"><g transform="translate(0,0)"><rect class="string-text" x="0" y="0" width="69" height="26"/><text x="4" y="22">qualType</text></g><g transform="translate(69,0)"><rect class="string-text" x="0" y="0" width="26" height="26"/><text x="4" y="22">int</text></g></g><g><text x="48" y="18" text-anchor="middle">type</text></g></g><g transform="translate(0,22)"><g transform="translate(0,0)"><rect class="string-text" x="0" y="0" width="44" height="26"/><text x="4" y="22">kind</text></g><g transform="translate(44,0)"><rect class="string-text" x="0" y="0" width="97" height="26"/><text x="4" y="22">IntegerLiteral</text></g><g transform="translate(0,26)"><rect class="string-text" x="0" y="0" width="44" height="26"/><text x="4" y="22">value</text></g><g transform="translate(44,26)"><rect class="string-text" x="0" y="0" width="97" height="26"/><text x="4" y="22">7</text></g></g><g><text x="71" y="18" text-anchor="middle">inner[0]</text></g></g><g class="vtree-node" transform="translate(16,0)"><path class="vtree-link" d="M60,35C60,90.5 60,90.5 60,146"/><g class="vtree-node" transform="translate(60,98)"><g class="vtree-node" transform="translate(-71,0)"><path class="vtree-link" d="M71,48C71,103.5 71,103.5 71,159"/><g class="vtree-node" transform="translate(23,124)"><g transform="translate(0,22)"><g transform="translate(0,0)"><rect class="string-text" x="0" y="0" width="69" height="26"/><text x="4" y="22">qualType</text></g><g transform="translate(69,0)"><rect class="string-text" x="0" y="0" width="26" height="26"/><text x="4" y="22">int</text></g></g><g><text x="48" y="18" text-anchor="middle">type</text></g></g><g transform="translate(0,22)"><g transform="translate(0,0)"><rect class="string-text" x="0" y="0" width="44" height="26"/><text x="4" y="22">kind</text></g><g transform="translate(44,0)"><rect class="string-text" x="0" y="0" width="97" height="26"/><text x="4" y="22">IntegerLiteral</text></g><g transform="translate(0,26)"><rect class="string-text" x="0" y="0" width="44" height="26"/><text x="4" y="22">value</text></g><g transform="translate(44,26)"><rect class="string-text" x="0" y="0" width="97" height="26"/><text x="4" y="22">8</text></g></g><g><text x="71" y="18" text-anchor="middle">inner[0]</text></g></g></g><g transform="translate(0,22)"><g transform="translate(0,0)"><rect class="string-text" x="0" y="0" width="37" height="26"/><text x="4" y="22">kind</text></g><g transform="translate(37,0)"><rect class="string-text" x="0" y="0" width="83" height="26"/><text x="4" y="22">InitListExpr</text></g></g><g><text x="60" y="18" text-anchor="middle">inner[1]</text></g></g></g><g transform="translate(0,22)"><g transform="translate(0,0)"><rect class="string-text" x="0" y="0" width="37" height="26"/><text x="4" y="22">kind</text></g><g transform="translate(37,0)"><rect class="string-text" x="0" y="0" width="83" height="26"/><text x="4" y="22">InitListExpr</text></g></g><g><text x="60" y="18" text-anchor="middle">inner[0]</text></g></g></g><g transform="translate(0,22)"><g transform="translate(0,0)"><rect class="string-text" x="0" y="0" width="37" height="26"/><text x="4" y="22">kind</text></g><g transform="translate(37,0)"><rect class="string-text" x="0" y="0" width="83" height="26"/><text x="4" y="22">InitListExpr</text></g></g><g><text x="60" y="18" text-anchor="middle">inner[3]</text></g></g></g><g transform="translate(0,22)"><g transform="translate(0,0)"><rect class="string-text" x="0" y="0" width="37" height="26"/><text x="4" y="22">kind</text></g><g transform="translate(37,0)"><rect class="string-text" x="0" y="0" width="83" height="26"/><text x="4" y="22">InitListExpr</text></g></g><g><text x="60" y="18" text-anchor="middle">inner[0]</text></g></g></g><g transform="translate(0,22)"><g transform="translate(0,0)"><rect class="string-text" x="0" y="0" width="37" height="26"/><text x="4" y="22">kind</text></g><g transform="translate(37,0)"><rect class="string-text" x="0" y="0" width="83" height="26"/><text x="4" y="22">InitListExpr</text></g></g><g><text x="60" y="18" text-anchor="middle">inner[0]</text></g></g></g><g class="vtree-node" transform="translate(887,124)"><g transform="translate(0,22)"><g transform="translate(0,0)"><rect class="string-text" x="0" y="0" width="69" height="26"/><text x="4" y="22">qualType</text></g><g transform="translate(69,0)"><rect class="string-text" x="0" y="0" width="69" height="26"/><text x="4" y="22">int [4] [2]</text></g></g><g><text x="69" y="18" text-anchor="middle">type</text></g></g><g transform="translate(0,22)"><g transform="translate(0,0)"><rect class="string-text" x="0" y="0" width="46" height="26"/><text x="4" y="22">kind</text></g><g transform="translate(46,0)"><rect class="string-text" x="0" y="0" width="60" height="26"/><text x="4" y="22">VarDecl</text></g><g transform="translate(0,26)"><rect class="string-text" x="0" y="0" width="46" height="26"/><text x="4" y="22">name</text></g><g transform="translate(46,26)"><rect class="string-text" x="0" y="0" width="60" height="26"/><text x="4" y="22">b</text></g></g><g><text x="53" y="18" text-anchor="middle">inner[1]</text></g></g><g class="vtree-node" transform="translate(1594,0)"><path class="vtree-link" d="M61,35C61,90.5 61,90.5 61,146"/><g class="vtree-node" transform="translate(61,98)"><g class="vtree-node" transform="translate(-71,0)"><path class="vtree-link" d="M71,48C71,103.5 71,103.5 71,159"/><g class="vtree-node" transform="translate(23,124)"><g transform="translate(0,22)"><g transform="translate(0,0)"><rect class="string-text" x="0" y="0" width="69" height="26"/><text x="4" y="22">qualType</text></g><g transform="translate(69,0)"><rect class="string-text" x="0" y="0" width="26" height="26"/><text x="4" y="22">int</text></g></g><g><text x="48" y="18" text-anchor="middle">type</text></g></g><g transform="translate(0,22)"><g transform="translate(0,0)"><rect class="string-text" x="0" y="0" width="44" height="26"/><text x="4" y="22">kind</text></g><g transform="translate(44,0)"><rect class="string-text" x="0" y="0" width="97" height="26"/><text x="4" y="22">IntegerLiteral</text></g><g transform="translate(0,26)"><rect class="string-text" x="0" y="0" width="44" height="26"/><text x="4" y="22">value</text></g><g transform="translate(44,26)"><rect class="string-text" x="0" y="0" width="97" height="26"/><text x="4" y="22">0</text></g></g><g><text x="71" y="18" text-anchor="middle">inner[0]</text></g></g></g><g transform="translate(0,22)"><g transform="translate(0,0)"><rect class="string-text" x="0" y="0" width="37" height="26"/><text x="4" y="22">kind</text></g><g transform="translate(37,0)"><rect class="string-text" x="0" y="0" width="84" height="26"/><text x="4" y="22">ReturnStmt</text></g></g><g><text x="61" y="18" text-anchor="middle">inner[2]</text></g></g></g><g transform="translate(0,22)"><g transform="translate(0,0)"><rect class="string-text" x="0" y="0" width="37" height="26"/><text x="4" y="22">kind</text></g><g transform="translate(37,0)"><rect class="string-text" x="0" y="0" width="115" height="26"/><text x="4" y="22">CompoundStmt</text></g></g><g><text x="76" y="18" text-anchor="middle">inner[0]</text></g></g></g><g class="vtree-node" transform="translate(1749,124)"><g transform="translate(0,22)"><g transform="translate(0,0)"><rect class="string-text" x="0" y="0" width="69" height="26"/><text x="4" y="22">qualType</text></g><g transform="translate(69,0)"><rect class="string-text" x="0" y="0" width="35" height="26"/><text x="4" y="22">int()</text></g></g><g><text x="52" y="18" text-anchor="middle">type</text></g></g><g transform="translate(0,22)"><g transform="translate(0,0)"><rect class="string-text" x="0" y="0" width="46" height="26"/><text x="4" y="22">kind</text></g><g transform="translate(46,0)"><rect class="string-text" x="0" y="0" width="96" height="26"/><text x="4" y="22">FunctionDecl</text></g><g transform="translate(0,26)"><rect class="string-text" x="0" y="0" width="46" height="26"/><text x="4" y="22">name</text></g><g transform="translate(46,26)"><rect class="string-text" x="0" y="0" width="96" height="26"/><text x="4" y="22">main</text></g></g><g><text x="71" y="18" text-anchor="middle">inner[0]</text></g></g></g><g transform="translate(0,0)"><rect class="string-text" x="0" y="0" width="37" height="26"/><text x="4" y="22">kind</text></g><g transform="translate(37,0)"><rect class="string-text" x="0" y="0" width="139" height="26"/><text x="4" y="22">TranslationUnitDecl</text></g></g></g></g></svg>